# xmcd CD database file
#
# Track frame offsets:
#	150
#	21953
#	44140
#	64607
#	83949
#	98880
#	122314
#	146357
#	165427
#
# Disc length: 2494 seconds
#
# Revision: 1
# Processed by: cddbd v1.5.2PL0 Copyright (c) Steve Scherf et al.
# Submitted via: CDex 1.70beta2
#
DISCID=6f09bc09
DTITLE=Vanesa Harbek - Una chica con Blues
DYEAR=1900
DGENRE=Blues
TTITLE0=Rooster Blues
TTITLE1=Hit the Road Jack
TTITLE2=El Blues de la Avenida
TTITLE3=Chitlins con Carne
TTITLE4=If You Love Me Like You Say
TTITLE5=Killing Floor
TTITLE6=Something's Got a Hold on Me
TTITLE7=Pride and Joy
TTITLE8=Proud Mary
EXTD=
EXTT0=
EXTT1=
EXTT2=
EXTT3=
EXTT4=
EXTT5=
EXTT6=
EXTT7=
EXTT8=
PLAYORDER=
